<svg width="180" height="180" viewBox="0 0 180 180" xmlns="http://www.w3.org/2000/svg">
  <defs>
    <linearGradient id="gradientApple" x1="0%" y1="0%" x2="100%" y2="100%">
      <stop offset="0%" style="stop-color:#0284c7;stop-opacity:1" />
      <stop offset="50%" style="stop-color:#0369a1;stop-opacity:1" />
      <stop offset="100%" style="stop-color:#075985;stop-opacity:1" />
    </linearGradient>
    <filter id="shadow">
      <feDropShadow dx="2" dy="2" stdDeviation="3" flood-opacity="0.3"/>
    </filter>
  </defs>
  <!-- Rounded background for iOS -->
  <rect width="180" height="180" rx="32" ry="32" fill="url(#gradientApple)"/>
  <!-- Main shield -->
  <path d="M90 20 L150 50 L150 110 C150 135 127 155 90 165 C53 155 30 135 30 110 L30 50 Z" fill="rgba(255,255,255,0.1)" filter="url(#shadow)"/>
  <!-- Globe representation -->
  <circle cx="90" cy="90" r="40" fill="none" stroke="white" stroke-width="4"/>
  <path d="M50 90 Q90 65 130 90" fill="none" stroke="white" stroke-width="3"/>
  <path d="M50 90 Q90 115 130 90" fill="none" stroke="white" stroke-width="3"/>
  <line x1="90" y1="50" x2="90" y2="130" stroke="white" stroke-width="3"/>
  <!-- Additional tech elements -->
  <circle cx="65" cy="65" r="3" fill="rgba(255,255,255,0.6)"/>
  <circle cx="115" cy="115" r="3" fill="rgba(255,255,255,0.6)"/>
  <circle cx="115" cy="65" r="2" fill="rgba(255,255,255,0.4)"/>
  <circle cx="65" cy="115" r="2" fill="rgba(255,255,255,0.4)"/>
</svg>