<svg width="1200" height="630" viewBox="0 0 1200 630" xmlns="http://www.w3.org/2000/svg">
  <defs>
    <linearGradient id="ogGradient" x1="0%" y1="0%" x2="100%" y2="100%">
      <stop offset="0%" style="stop-color:#0284c7;stop-opacity:1" />
      <stop offset="100%" style="stop-color:#075985;stop-opacity:1" />
    </linearGradient>
  </defs>
  
  <!-- Background -->
  <rect width="1200" height="630" fill="url(#ogGradient)"/>
  
  <!-- Logo placeholder (shield with globe) -->
  <g transform="translate(100, 200)">
    <path d="M50 20 L130 50 L130 150 C130 180 100 210 50 230 C0 210 -30 180 -30 150 L-30 50 Z" fill="rgba(255,255,255,0.15)"/>
    <circle cx="50" cy="125" r="40" fill="none" stroke="white" stroke-width="3"/>
    <path d="M10 125 Q50 105 90 125" fill="none" stroke="white" stroke-width="2"/>
    <path d="M10 125 Q50 145 90 125" fill="none" stroke="white" stroke-width="2"/>
    <line x1="50" y1="85" x2="50" y2="165" stroke="white" stroke-width="2"/>
  </g>
  
  <!-- Main text -->
  <text x="280" y="200" fill="white" font-family="Arial, sans-serif" font-size="48" font-weight="bold">
    Tech Maven Geospatial
  </text>
  <text x="280" y="250" fill="rgba(255,255,255,0.9)" font-family="Arial, sans-serif" font-size="24">
    Defense &amp; GEOINT Solutions
  </text>
  <text x="280" y="300" fill="rgba(255,255,255,0.8)" font-family="Arial, sans-serif" font-size="18">
    Next-generation geospatial intelligence platform
  </text>
  <text x="280" y="330" fill="rgba(255,255,255,0.8)" font-family="Arial, sans-serif" font-size="18">
    built with Rust for defense and military organizations
  </text>
  
  <!-- Features -->
  <g transform="translate(280, 380)">
    <text x="0" y="0" fill="rgba(255,255,255,0.9)" font-family="Arial, sans-serif" font-size="16" font-weight="bold">✓ OGC API Compliant</text>
    <text x="200" y="0" fill="rgba(255,255,255,0.9)" font-family="Arial, sans-serif" font-size="16" font-weight="bold">✓ Military-Grade Security</text>
    <text x="0" y="25" fill="rgba(255,255,255,0.9)" font-family="Arial, sans-serif" font-size="16" font-weight="bold">✓ Cloud-Native</text>
    <text x="200" y="25" fill="rgba(255,255,255,0.9)" font-family="Arial, sans-serif" font-size="16" font-weight="bold">✓ Real-time Collaboration</text>
  </g>
</svg>